<svg xmlns="http://www.w3.org/2000/svg" viewBox="0 0 1200 760" role="img" aria-label="Pong Duel preview">
  <defs>
    <linearGradient id="bg" x1="0" y1="0" x2="1" y2="1">
      <stop offset="0%" stop-color="#0a1426"/>
      <stop offset="100%" stop-color="#07111f"/>
    </linearGradient>
    <radialGradient id="glowA" cx="0.15" cy="0.1" r="0.8">
      <stop offset="0%" stop-color="#ff8a7a" stop-opacity="0.32"/>
      <stop offset="100%" stop-color="#ff8a7a" stop-opacity="0"/>
    </radialGradient>
    <radialGradient id="glowB" cx="0.9" cy="0.15" r="0.7">
      <stop offset="0%" stop-color="#78a6ff" stop-opacity="0.24"/>
      <stop offset="100%" stop-color="#78a6ff" stop-opacity="0"/>
    </radialGradient>
  </defs>
  <rect width="1200" height="760" rx="44" fill="url(#bg)"/>
  <rect width="1200" height="760" rx="44" fill="url(#glowA)">
    <animate attributeName="opacity" values="0.72;1;0.72" dur="8s" repeatCount="indefinite"/>
  </rect>
  <rect width="1200" height="760" rx="44" fill="url(#glowB)">
    <animate attributeName="opacity" values="0.55;0.85;0.55" dur="9s" repeatCount="indefinite"/>
  </rect>
  <rect x="44" y="42" width="1112" height="676" rx="34" fill="#0d182b" stroke="#ffffff" stroke-opacity="0.12"/>
  <rect x="72" y="68" width="256" height="44" rx="22" fill="rgba(120,166,255,0.14)" stroke="#78a6ff" stroke-opacity="0.24"/>
  <text x="104" y="97" font-family="Arial, sans-serif" font-size="21" font-weight="700" fill="#ff8a7a">Duel</text>
  <text x="72" y="174" font-family="Arial, sans-serif" font-size="62" font-weight="700" fill="#f3f7ff">Pong Duel</text>
  <text x="72" y="225" font-family="Arial, sans-serif" font-size="28" font-weight="700" fill="#a6b5cf">Head-to-head arena showdown</text>
  <g transform="translate(0 8)">
    <rect x="86" y="286" width="1028" height="342" rx="30" fill="#0c1730" stroke="#29536b"/>
    <line x1="600" y1="320" x2="600" y2="598" stroke="#dce9ff" stroke-width="8" stroke-dasharray="14 18" opacity="0.8"/>
    <rect x="126" y="404" width="18" height="118" rx="9" fill="#ff8a7a"/>
    <rect x="1056" y="416" width="18" height="118" rx="9" fill="#78a6ff"/>
    <circle cx="600" cy="468" r="16" fill="#ffffff"/>
    <path d="M450 364 C510 338, 560 338, 600 372" fill="none" stroke="#ff8a7a" stroke-width="12" stroke-linecap="round"/>
    <path d="M750 364 C690 338, 640 338, 600 372" fill="none" stroke="#78a6ff" stroke-width="12" stroke-linecap="round"/>
    <rect x="118" y="316" width="220" height="54" rx="20" fill="#102540" stroke="#284b75"/>
    <rect x="862" y="316" width="220" height="54" rx="20" fill="#102540" stroke="#284b75"/>
    <text x="150" y="350" font-family="Arial, sans-serif" font-size="24" font-weight="700" fill="#ffb2a8">Evolution</text>
    <text x="940" y="350" font-family="Arial, sans-serif" font-size="24" font-weight="700" fill="#a9c4ff">RL</text>
    <rect x="400" y="552" width="400" height="48" rx="18" fill="#0f2139" stroke="#284b75"/>
    <text x="456" y="583" font-family="Arial, sans-serif" font-size="22" font-weight="700" fill="#dce9ff">Shared arena · direct matchup</text>
    </g>
</svg>